<svg id="Layer_1" data-name="Layer 1" xmlns="http://www.w3.org/2000/svg" xmlns:xlink="http://www.w3.org/1999/xlink" viewBox="0 0 200 146"><defs><style>.cls-1{fill:#fff;}.cls-2{fill:#2e135b;}.cls-3{fill:#21093c;}.cls-4{fill:#8039fe;}.cls-5{fill:url(#linear-gradient);}.cls-6{fill:url(#linear-gradient-2);}.cls-7{fill:url(#linear-gradient-3);}.cls-8{fill:url(#linear-gradient-4);}.cls-9{fill:url(#linear-gradient-5);}.cls-10{fill:url(#linear-gradient-6);}.cls-11{fill:url(#linear-gradient-7);}.cls-12{fill:url(#linear-gradient-8);}.cls-13{fill:url(#linear-gradient-9);}.cls-14{fill:url(#linear-gradient-10);}.cls-15{fill:url(#linear-gradient-11);}.cls-16{fill:url(#linear-gradient-12);}</style><linearGradient id="linear-gradient" x1="32.3" y1="110.62" x2="32.3" y2="102.45" gradientUnits="userSpaceOnUse"><stop offset="0" stop-color="#fff" stop-opacity="0"/><stop offset="1" stop-color="#23d3e9" stop-opacity="0.5"/></linearGradient><linearGradient id="linear-gradient-2" x1="36.39" y1="124.31" x2="36.39" y2="115.28" xlink:href="#linear-gradient"/><linearGradient id="linear-gradient-3" x1="79.3" y1="125.23" x2="79.3" y2="101.94" xlink:href="#linear-gradient"/><linearGradient id="linear-gradient-4" x1="117.65" y1="110.62" x2="117.65" y2="102.45" xlink:href="#linear-gradient"/><linearGradient id="linear-gradient-5" x1="121.74" y1="124.31" x2="121.74" y2="115.28" xlink:href="#linear-gradient"/><linearGradient id="linear-gradient-6" x1="163.91" y1="125.09" x2="163.91" y2="101.95" xlink:href="#linear-gradient"/><linearGradient id="linear-gradient-7" x1="22.7" y1="52.66" x2="22.7" y2="33.69" xlink:href="#linear-gradient"/><linearGradient id="linear-gradient-8" x1="62.01" y1="52.22" x2="62.01" y2="33.67" xlink:href="#linear-gradient"/><linearGradient id="linear-gradient-9" x1="87.55" y1="52.22" x2="87.55" y2="33.67" xlink:href="#linear-gradient"/><linearGradient id="linear-gradient-10" x1="107.91" y1="52.22" x2="107.91" y2="33.67" xlink:href="#linear-gradient"/><linearGradient id="linear-gradient-11" x1="140.89" y1="52.66" x2="140.89" y2="33.69" xlink:href="#linear-gradient"/><linearGradient id="linear-gradient-12" x1="180.06" y1="52.22" x2="180.06" y2="33.67" xlink:href="#linear-gradient"/></defs><rect class="cls-1" x="26.26" y="42.91" width="144.61" height="56"/><path class="cls-1" d="M22.61,72.41a30,30,0,0,1-8.29-1.12,22,22,0,0,1-7.19-3.52,18.15,18.15,0,0,1-5.16-6,17.15,17.15,0,0,1-2-8.21V40.92A6.75,6.75,0,0,1,1.21,37.3a19.45,19.45,0,0,1-.54-4.71V20.37a22.13,22.13,0,0,1,1.71-9,17.62,17.62,0,0,1,4.94-6.6,19.67,19.67,0,0,1,7.2-3.69A30.24,30.24,0,0,1,22.79,0a29.19,29.19,0,0,1,8.26,1.13,20.82,20.82,0,0,1,7.08,3.58,17.53,17.53,0,0,1,6.72,14.12V31.49a7,7,0,0,1-.39,2,18.44,18.44,0,0,1,.94,6V51.74a21.35,21.35,0,0,1-1.85,9.13,18.54,18.54,0,0,1-5.12,6.62A20.39,20.39,0,0,1,31,71.3,30.76,30.76,0,0,1,22.61,72.41Z"/><path class="cls-1" d="M140.93,72.41a36.93,36.93,0,0,1-8.87-1,20.39,20.39,0,0,1-6.8-3.05,3.6,3.6,0,0,1-.29.5,6.06,6.06,0,0,1-5.22,2.64H108.89a6.29,6.29,0,0,1-6.32-4.85L102,64.56H96.78L96.11,67l-.06.16a6.53,6.53,0,0,1-6.27,4.3H79.34a6.13,6.13,0,0,1-5.18-2.61,5.8,5.8,0,0,1-1-3.11c0-.13,0-.26,0-.39V56.45a27.41,27.41,0,0,1-2.72,1,30.78,30.78,0,0,1-7.13,1.36v6.31A6.2,6.2,0,0,1,57,71.49H47a6.17,6.17,0,0,1-6.29-6.32V31.89A6.35,6.35,0,0,1,39.44,28V7.24A6.2,6.2,0,0,1,45.79.92h14.5C67.88.92,74,2.76,78.46,6.38a18.74,18.74,0,0,1,6.21,9.23L87.88,5.37l0-.09A6.53,6.53,0,0,1,94.14.92h8.56a6.08,6.08,0,0,1,4.93,2.3l.16.21a6.13,6.13,0,0,1,3.82,3.94l5.37,17V23.19a29.15,29.15,0,0,1,1.72-10.57A18.42,18.42,0,0,1,124.07,5a19.88,19.88,0,0,1,8-4,36.93,36.93,0,0,1,8.87-1,35.67,35.67,0,0,1,8.9,1.05,20.13,20.13,0,0,1,7.91,4,18.37,18.37,0,0,1,5.32,7.39,26.82,26.82,0,0,1,1.75,10.12V35.38s0,.35,0,.47,0,.43,0,.65V49.83A27.27,27.27,0,0,1,163,60.19a18.45,18.45,0,0,1-5.43,7.42,19.91,19.91,0,0,1-8,3.83A37.58,37.58,0,0,1,140.93,72.41Zm-1.25-32.83a5.63,5.63,0,0,0,1.25.11,5.43,5.43,0,0,0,1.14-.09,8.35,8.35,0,0,0,.21-2.12v-1q0-.31,0-.63c0-.22,0-.43,0-.64v-.92a4.36,4.36,0,0,0-.21-1.49,5,5,0,0,0-1.14-.1,5.67,5.67,0,0,0-1.26.11,7.63,7.63,0,0,0-.22,2.1v2.55A7.31,7.31,0,0,0,139.68,39.58Z"/><path class="cls-1" d="M166.47,71.49a6.2,6.2,0,0,1-6.35-6.32V31.58a6.34,6.34,0,0,1-1.27-3.89V7.24A6.2,6.2,0,0,1,165.19.92h28.16a6.17,6.17,0,0,1,6.29,6.32V27.62a6.32,6.32,0,0,1-2.37,5.08v6.73A6.24,6.24,0,0,1,200,44.72V65.11a6.17,6.17,0,0,1-6.23,6.38Z"/><path class="cls-1" d="M20.13,145a6.35,6.35,0,0,1-6.51-6.61V115.88a7.11,7.11,0,0,1,.63-3v-1.29a6.47,6.47,0,0,1,.64-2.79,6.77,6.77,0,0,1-1.67-4.26V90.06a30.1,30.1,0,0,1,1.65-10.4,20.55,20.55,0,0,1,5-7.79,19.94,19.94,0,0,1,7.65-4.51,28.75,28.75,0,0,1,8.82-1.31,28,28,0,0,1,8.44,1.23,20.49,20.49,0,0,1,7.33,4,19.19,19.19,0,0,1,5,6.9,22.68,22.68,0,0,1,1.76,9.16V101a20.4,20.4,0,0,1-2.21,9.48,6.65,6.65,0,0,1,2.49,5.37v22.48A6.35,6.35,0,0,1,52.65,145Z"/><path class="cls-1" d="M79.27,146a32.79,32.79,0,0,1-8.94-1.16,18.44,18.44,0,0,1-8-4.58,20.76,20.76,0,0,1-5-8.25,35.7,35.7,0,0,1-1.6-11.39V91.42A35.78,35.78,0,0,1,57.36,80a20.72,20.72,0,0,1,5-8.24,18.35,18.35,0,0,1,8-4.59,33.06,33.06,0,0,1,9-1.15,32.72,32.72,0,0,1,8.93,1.15,18.45,18.45,0,0,1,8,4.59,20.84,20.84,0,0,1,5,8.24,35.78,35.78,0,0,1,1.6,11.39v29.2A35.44,35.44,0,0,1,101.24,132a20.82,20.82,0,0,1-5,8.25,18.47,18.47,0,0,1-8,4.59A33.45,33.45,0,0,1,79.27,146Zm0-41.62q0,.53,0,1.17v.94c0,.45,0,.84,0,1.2,0-.36,0-.75,0-1.2v-.94Q79.33,104.91,79.3,104.38Z"/><path class="cls-1" d="M105.48,145A6.35,6.35,0,0,1,99,138.36V115.88a7,7,0,0,1,.64-3v-1.29a6.2,6.2,0,0,1,.64-2.79,6.78,6.78,0,0,1-1.68-4.26V90.06a29.87,29.87,0,0,1,1.65-10.4,20.31,20.31,0,0,1,5-7.79,19.74,19.74,0,0,1,7.65-4.51,28.71,28.71,0,0,1,8.82-1.31,28,28,0,0,1,8.43,1.23,20.54,20.54,0,0,1,7.34,4,19.43,19.43,0,0,1,5,6.9,22.71,22.71,0,0,1,1.76,9.16V101a20.53,20.53,0,0,1-2.21,9.48,6.64,6.64,0,0,1,2.48,5.37v22.48A6.35,6.35,0,0,1,138,145Z"/><path class="cls-1" d="M164.42,145.86a35.15,35.15,0,0,1-8.84-1.09,21.35,21.35,0,0,1-8.14-4.09,20,20,0,0,1-5.64-7.51,26.16,26.16,0,0,1-2-10.63V108.09a7.78,7.78,0,0,1,.32-1.9,7,7,0,0,1-.25-1.61V90.06a29.33,29.33,0,0,1,1.7-10.44,19.79,19.79,0,0,1,12.89-12.27,29.46,29.46,0,0,1,8.92-1.3A29.11,29.11,0,0,1,172,67.27a20.74,20.74,0,0,1,7.43,4,19.39,19.39,0,0,1,5.11,6.87,21.54,21.54,0,0,1,1.82,9.31v13.66l0,.66a23.36,23.36,0,0,1,1.72,9.08v13.65a21.39,21.39,0,0,1-2,9.34,20,20,0,0,1-5.33,6.81,21.65,21.65,0,0,1-7.64,4A30.1,30.1,0,0,1,164.42,145.86Z"/><path class="cls-2" d="M36,64.53a14.89,14.89,0,0,0,4.08-5.29,17.54,17.54,0,0,0,1.49-7.5c0-.05,0-.09,0-.13s0-.08,0-.12,0-.09,0-.13,0-.08,0-.12,0-.09,0-.13,0-.08,0-.12,0-.09,0-.13,0-.08,0-.12,0-.09,0-.13,0-.08,0-.12,0-.09,0-.13,0-.08,0-.12,0-.09,0-.13,0-.08,0-.12,0-.08,0-.13,0-.08,0-.12,0-.08,0-.13,0-.08,0-.12,0-.08,0-.13,0-.08,0-.12,0-.08,0-.13,0-.08,0-.12,0-.08,0-.13,0-.08,0-.12,0-.08,0-.13,0-.08,0-.12,0-.08,0-.13,0-.08,0-.12,0-.08,0-.12,0-.09,0-.13,0-.08,0-.12,0-.08,0-.13,0-.08,0-.12,0-.08,0-.13,0-.08,0-.12,0-.08,0-.13,0-.08,0-.12,0-.08,0-.13,0-.08,0-.12,0-.08,0-.13,0-.08,0-.12,0-.08,0-.13,0-.08,0-.12,0-.08,0-.12,0-.09,0-.13,0-.08,0-.12,0-.09,0-.13,0-.08,0-.12,0-.09,0-.13,0-.08,0-.12,0-.09,0-.13,0-.08,0-.12,0-.09,0-.13,0-.08,0-.12,0-.09,0-.13,0-.08,0-.12,0-.08,0-.13,0-.08,0-.12,0-.08,0-.13,0-.08,0-.12,0-.08,0-.13,0-.08,0-.12,0-.08,0-.13,0-.08,0-.12,0-.08,0-.13,0-.08,0-.12,0-.08,0-.13,0-.08,0-.12,0-.08,0-.13,0-.08,0-.12,0-.08,0-.13,0-.08,0-.12,0-.08,0-.12,0-.09,0-.13,0-.08,0-.12,0-.08,0-.13,0-.08,0-.12,0-.08,0-.13,0-.08,0-.12,0-.08,0-.13,0-.08,0-.12,0-.08,0-.13,0-.08,0-.12,0-.08,0-.12,0-.09,0-.13,0-.08,0-.12,0-.09,0-.13,0-.08,0-.12,0-.09,0-.13,0-.08,0-.12,0-.09,0-.13,0-.08,0-.12,0-.09,0-.13,0-.08,0-.12,0-.09,0-.13,0-.08,0-.12,0-.09,0-.13,0-.08,0-.12A13.82,13.82,0,0,0,40.55,34c-.11-.25-.24-.48-.36-.72a2.6,2.6,0,0,0,.86-1.94v-.25h0v-.25h0v-.25h0v-.25h0v-.25h0v-.25h0v-.25h0v-.25h0v-.25h0v-.25h0v-.24h0v-.24h0v-.24h0v-.24h0v-.24h0v-.24h0v-.24h0v-.24h0v-.24h0v-.24h0v-.24h0v-.25h0v-.25h0v-.25h0v-.25h0v-.25h0v-.25h0v-.25h0v-.25h0v-.25h0v-.25h0v-.25h0v-.25h0v-.24h0v-.24h0v-.24h0v-.24h0v-.24h0v-.24h0v-.24h0v-.24h0v-.24h0v-.25h0v-.25h0v-.25h0v-.25h0v-.25h0v-.25h0v-.25h0v-.25A13.7,13.7,0,0,0,35.77,7.71,17.11,17.11,0,0,0,30,4.79a25.23,25.23,0,0,0-7.18-1,26.2,26.2,0,0,0-7.23.94,16,16,0,0,0-5.83,3,13.85,13.85,0,0,0-3.87,5.2,18.38,18.38,0,0,0-1.39,7.45s0,.07,0,.11,0,.09,0,.14,0,.07,0,.11,0,.09,0,.14,0,.07,0,.11,0,.09,0,.13,0,.08,0,.12,0,.09,0,.13,0,.08,0,.12,0,.09,0,.13,0,.08,0,.12,0,.09,0,.13,0,.08,0,.12,0,.09,0,.13,0,.08,0,.12,0,.09,0,.13,0,.08,0,.12,0,.09,0,.13,0,.08,0,.12,0,.09,0,.13,0,.08,0,.12,0,.09,0,.13,0,.08,0,.12,0,.09,0,.13,0,.08,0,.12,0,.09,0,.13,0,.08,0,.12,0,.09,0,.13,0,.08,0,.12,0,.08,0,.13,0,.08,0,.12,0,.08,0,.13,0,.08,0,.12,0,.08,0,.13,0,.08,0,.12,0,.08,0,.13,0,.08,0,.12,0,.08,0,.13,0,.08,0,.12,0,.08,0,.13,0,.07,0,.12,0,.08,0,.13,0,.07,0,.12,0,.08,0,.13,0,.07,0,.11,0,.09,0,.14,0,.07,0,.11,0,.09,0,.14,0,.07,0,.11,0,.09,0,.14,0,.07,0,.11,0,.09,0,.13,0,.08,0,.12,0,.09,0,.13,0,.08,0,.12,0,.09,0,.13,0,.08,0,.12,0,.09,0,.13,0,.08,0,.12,0,.09,0,.13,0,.08,0,.12,0,.09,0,.13,0,.08,0,.12,0,.09,0,.13,0,.08,0,.12,0,.09,0,.13,0,.08,0,.12,0,.09,0,.13,0,.08,0,.12,0,.08,0,.13,0,.08,0,.12,0,.08,0,.13,0,.08,0,.12,0,.08,0,.13,0,.08,0,.12,0,.08,0,.13,0,.08,0,.12,0,.08,0,.13,0,.08,0,.12,0,.08,0,.13,0,.08,0,.12,0,.08,0,.13,0,.08,0,.12,0,.08,0,.13,0,.07,0,.12,0,.08,0,.13,0,.07,0,.12,0,.08,0,.13,0,.07,0,.11,0,.09,0,.14,0,.07,0,.11,0,.09,0,.14,0,.07,0,.11,0,.09,0,.13,0,.08,0,.12,0,.09,0,.13,0,.08,0,.12,0,.09,0,.13a13.32,13.32,0,0,0,1.26,6l0,0A2.37,2.37,0,0,0,3.81,41.1v.25h0v.25h0v.25h0v.25h0v.25h0v.25h0v.25h0v.25h0v.24h0v.24h0v.24h0v.24h0v.24h0v.24h0v.24h0v.24h0v.24h0v.24h0v.24h0v.25h0v.25h0v.25h0v.25h0v.25h0v.25h0v.25h0v.25h0v.25h0v.25h0v.25h0v.25h0v.24h0v.24h0v.24h0v.24h0v.24h0v.24h0v.24h0v.24h0v.24h0v.25h0v.25h0v.25h0v.25h0v.25h0v.25h0v.25h0v.25h0v.25h0v.25A13.47,13.47,0,0,0,5.32,60a14.51,14.51,0,0,0,4.09,4.74,18.29,18.29,0,0,0,6,2.9,25.91,25.91,0,0,0,7.24,1,26.71,26.71,0,0,0,7.35-1A16.53,16.53,0,0,0,36,64.53Z"/><path class="cls-2" d="M76.11,50.08a15.68,15.68,0,0,0,2.73-3.14l-1.66,5.31A2.57,2.57,0,0,0,77,53.62a2.09,2.09,0,0,0,0,.25,2.09,2.09,0,0,0,0,.25,2.09,2.09,0,0,0,0,.25,2.09,2.09,0,0,0,0,.25,2.09,2.09,0,0,0,0,.25,2.09,2.09,0,0,0,0,.25,2.09,2.09,0,0,0,0,.25,1.92,1.92,0,0,0,0,.24,2.08,2.08,0,0,0,0,.25,2.08,2.08,0,0,0,0,.25,2.08,2.08,0,0,0,0,.25,2.08,2.08,0,0,0,0,.25,2.08,2.08,0,0,0,0,.25,2.08,2.08,0,0,0,0,.25,2.08,2.08,0,0,0,0,.25,2.09,2.09,0,0,0,0,.25,2.09,2.09,0,0,0,0,.25,2.09,2.09,0,0,0,0,.25,2.09,2.09,0,0,0,0,.25,2.09,2.09,0,0,0,0,.25,2.09,2.09,0,0,0,0,.25,2.09,2.09,0,0,0,0,.25,2.09,2.09,0,0,0,0,.25,2.09,2.09,0,0,0,0,.25,2.09,2.09,0,0,0,0,.25,2.09,2.09,0,0,0,0,.25,2.09,2.09,0,0,0,0,.25,1.92,1.92,0,0,0,0,.24,2.08,2.08,0,0,0,0,.25,2.08,2.08,0,0,0,0,.25,2.08,2.08,0,0,0,0,.25,2.08,2.08,0,0,0,0,.25,2.08,2.08,0,0,0,0,.25,2.08,2.08,0,0,0,0,.25,2.08,2.08,0,0,0,0,.25,2.08,2.08,0,0,0,0,.25,2.08,2.08,0,0,0,0,.25,2.09,2.09,0,0,0,0,.25,2.09,2.09,0,0,0,0,.25,2.09,2.09,0,0,0,0,.25,2.09,2.09,0,0,0,0,.25,2.09,2.09,0,0,0,0,.25,2.09,2.09,0,0,0,0,.25,2.09,2.09,0,0,0,0,.25,2.09,2.09,0,0,0,0,.25,2.09,2.09,0,0,0,0,.25,2.09,2.09,0,0,0,0,.25,2.49,2.49,0,0,0,.33,1.37,2.34,2.34,0,0,0,2,1H89.78a2.72,2.72,0,0,0,2.7-1.81l1.67-6.13a1,1,0,0,0,.08.11,2.41,2.41,0,0,0,2,.9H105l1.27,5a2.53,2.53,0,0,0,2.63,2h10.86a2.24,2.24,0,0,0,2-.92,1.92,1.92,0,0,0,.3-1.17,1,1,0,0,0,0-.25,1,1,0,0,0,0-.25,1,1,0,0,0,0-.25,1,1,0,0,0,0-.25,1,1,0,0,0,0-.25,1,1,0,0,0,0-.25,1,1,0,0,0,0-.25,1,1,0,0,0,0-.25,1,1,0,0,0,0-.25,1,1,0,0,0,0-.25,1,1,0,0,0,0-.25,1,1,0,0,0,0-.25,1,1,0,0,0,0-.25,1,1,0,0,0,0-.25,1,1,0,0,0,0-.25,1,1,0,0,0,0-.25,1,1,0,0,0,0-.25,1,1,0,0,0,0-.25,1,1,0,0,0,0-.25,1,1,0,0,0,0-.25,1,1,0,0,0,0-.25,1,1,0,0,0,0-.24,1,1,0,0,0,0-.25,1,1,0,0,0,0-.25,1,1,0,0,0,0-.25,1,1,0,0,0,0-.25,1,1,0,0,0,0-.25,1,1,0,0,0,0-.25,1,1,0,0,0,0-.25,1,1,0,0,0,0-.25.64.64,0,0,1,0-.07c0,.13.08.28.13.41a14.78,14.78,0,0,0,4.26,6.07A16.17,16.17,0,0,0,133,67.7a33.35,33.35,0,0,0,8,.89,33.8,33.8,0,0,0,7.81-.86,16.41,16.41,0,0,0,6.48-3.1,14.57,14.57,0,0,0,4.29-5.9,23.49,23.49,0,0,0,1.49-8.9V36.5a2.76,2.76,0,0,0-.07-.65,3.17,3.17,0,0,0,.07-.56V22.51a23.05,23.05,0,0,0-1.46-8.67,14.68,14.68,0,0,0-4.22-5.9,16.34,16.34,0,0,0-6.43-3.19,32,32,0,0,0-8-.93,33.35,33.35,0,0,0-8,.89,16.17,16.17,0,0,0-6.48,3.2,14.82,14.82,0,0,0-4.26,6.1,25.58,25.58,0,0,0-1.45,9.18V49L108,8.65A2.16,2.16,0,0,0,106,7a1.83,1.83,0,0,0-.91.23V7a2.18,2.18,0,0,0-.44-1.39,2.29,2.29,0,0,0-1.93-.83H94.14a2.7,2.7,0,0,0-2.66,1.87l-9.65,30.8c0-.41,0-.83,0-1.26V22.7c0-5.74-1.95-10.23-5.81-13.35S67,4.74,60.29,4.74H45.79a2.37,2.37,0,0,0-2.55,2.5V28a2.34,2.34,0,0,0,1.28,2.21v35A2.33,2.33,0,0,0,47,67.67H57a2.36,2.36,0,0,0,2.54-2.5v-10h.8a29.34,29.34,0,0,0,9-1.29A19.11,19.11,0,0,0,76.11,50.08ZM136.82,30.2c.74-.86,2.12-1.3,4.11-1.3s3.31.44,4,1.32a6.52,6.52,0,0,1,1.15,4.09v.92a3.22,3.22,0,0,0,.07.64,3.2,3.2,0,0,0-.07.63v1c0,2.23-.38,3.82-1.14,4.75s-2,1.28-4,1.28-3.37-.44-4.11-1.3-1.18-2.51-1.18-4.73V34.93C135.64,32.71,136,31.12,136.82,30.2Z"/><path class="cls-2" d="M193.77,42.22h-.31v-12a2.36,2.36,0,0,0,2.37-2.56V7.24a2.33,2.33,0,0,0-2.48-2.5H165.19a2.36,2.36,0,0,0-2.54,2.5v8.22h0v.24h0V16h0v.24h0v.24h0v.24h0V17h0v.24h0v2.23h0v8.23a2.31,2.31,0,0,0,1.28,2.2V65.17a2.36,2.36,0,0,0,2.54,2.5h27.3a2.33,2.33,0,0,0,2.42-2.56V44.72A2.31,2.31,0,0,0,193.77,42.22Z"/><path class="cls-2" d="M52.65,113H50.54a29.55,29.55,0,0,0,2.64-4,16.61,16.61,0,0,0,1.9-7.94s0-.1,0-.15,0-.08,0-.13,0-.1,0-.15,0-.08,0-.12,0-.11,0-.16,0-.08,0-.12,0-.11,0-.16,0-.08,0-.12,0-.11,0-.16,0-.08,0-.12,0-.1,0-.16,0-.08,0-.12,0-.1,0-.16,0-.08,0-.12,0-.1,0-.15,0-.08,0-.13,0-.1,0-.15,0-.08,0-.13,0-.1,0-.15,0-.08,0-.12,0-.11,0-.16,0-.08,0-.12,0-.11,0-.16,0-.08,0-.12,0-.1,0-.16,0-.08,0-.12,0-.1,0-.16,0-.08,0-.12,0-.1,0-.16,0-.08,0-.12,0-.1,0-.15,0-.08,0-.13,0-.1,0-.15,0-.08,0-.12,0-.11,0-.16,0-.08,0-.12,0-.11,0-.16,0-.08,0-.12,0-.1,0-.16,0-.08,0-.12,0-.1,0-.16,0-.08,0-.12,0-.1,0-.16,0-.08,0-.12,0-.1,0-.15,0-.08,0-.13,0-.1,0-.15,0-.08,0-.12,0-.11,0-.16,0-.08,0-.12,0-.11,0-.16,0-.08,0-.12,0-.1,0-.16,0-.08,0-.12,0-.1,0-.16,0-.08,0-.12,0-.1,0-.16,0-.08,0-.12,0-.1,0-.15,0-.08,0-.13,0-.1,0-.15,0-.08,0-.12,0-.11,0-.16,0-.08,0-.12,0-.11,0-.16,0-.08,0-.12,0-.1,0-.16,0-.08,0-.12,0-.1,0-.16,0-.08,0-.12,0-.1,0-.16,0-.08,0-.12,0-.1,0-.15,0-.08,0-.13,0-.1,0-.15,0-.08,0-.12,0-.11,0-.16,0-.08,0-.12,0-.11,0-.16,0-.08,0-.12,0-.11,0-.16,0-.08,0-.12,0-.1,0-.16,0-.08,0-.12,0-.1,0-.16,0-.08,0-.12,0-.1,0-.15,0-.09,0-.13,0-.1,0-.15,0-.08,0-.12,0-.11,0-.16,0-.08,0-.12,0-.11,0-.16,0-.08,0-.12,0-.11,0-.16,0-.08,0-.12,0-.1,0-.16,0-.08,0-.12a19.05,19.05,0,0,0-1.44-7.63,15.55,15.55,0,0,0-4-5.54,17,17,0,0,0-6-3.29,24.39,24.39,0,0,0-7.3-1.06A24.9,24.9,0,0,0,28.67,71a16.06,16.06,0,0,0-6.2,3.65,16.63,16.63,0,0,0-4,6.36,26,26,0,0,0-1.41,9v.27h0v1.38h0V92h0v.27h0v1.38h0v.27h0v.27h0v.27h0v1.1h0v.27h0v.27h0v.27h0v1.1h0v.27h0v.27h0v.27h0v1.38h0v.27h0v.27h0v1.38h0V102h0v.27h0v1.38h0v.69a2.63,2.63,0,0,0,2.77,2.72h1a19,19,0,0,0-2.35,3.15,2.5,2.5,0,0,0-.39,1.43,2.61,2.61,0,0,0,0,.28,2.61,2.61,0,0,0,0,.28,2.62,2.62,0,0,0,0,.28,2.61,2.61,0,0,0,0,.28,2.61,2.61,0,0,0,0,.28,2.43,2.43,0,0,0,0,.27,2.61,2.61,0,0,0,0,.28,2.61,2.61,0,0,0,0,.28s0,0,0,0a3,3,0,0,0-.62,1.92v22.48a2.57,2.57,0,0,0,2.7,2.79H52.65a2.57,2.57,0,0,0,2.7-2.79V115.88A2.61,2.61,0,0,0,52.65,113Z"/><path class="cls-2" d="M93.6,74.52a14.52,14.52,0,0,0-6.36-3.64,28.74,28.74,0,0,0-7.9-1,29.13,29.13,0,0,0-8,1A14.58,14.58,0,0,0,65,74.52a17,17,0,0,0-4,6.75,31.82,31.82,0,0,0-1.4,10.15v29.2A31.89,31.89,0,0,0,61,130.78a17,17,0,0,0,4,6.75,14.62,14.62,0,0,0,6.36,3.64,31.56,31.56,0,0,0,15.84,0,14.68,14.68,0,0,0,6.41-3.64,17,17,0,0,0,4-6.75A32.2,32.2,0,0,0,99,120.62V91.42a32.13,32.13,0,0,0-1.39-10.15A16.94,16.94,0,0,0,93.6,74.52ZM82.26,112c-.16.29-.65,1.2-3,1.2s-2.79-.89-3-1.19c-.39-.75-.85-2.32-.85-5.54v-.94c0-3.16.48-4.73.88-5.5.16-.3.65-1.23,3-1.23s2.78.92,2.94,1.22c.39.76.86,2.34.86,5.51v.94C83.14,109.71,82.66,111.27,82.26,112Z"/><path class="cls-2" d="M138,113h-2.1a31.55,31.55,0,0,0,2.64-4,16.72,16.72,0,0,0,1.89-7.94V87.38A18.88,18.88,0,0,0,139,79.75a15.55,15.55,0,0,0-4-5.54,17,17,0,0,0-6-3.29,24.3,24.3,0,0,0-7.3-1.06A24.83,24.83,0,0,0,114,71a15.91,15.91,0,0,0-6.2,3.65,16.76,16.76,0,0,0-4,6.36,26.26,26.26,0,0,0-1.41,9v.27h0v1.38h0V92h0v.27h0v1.38h0v.27h0v.27h0v.27h0v1.1h0v.27h0v.27h0v.27h0v1.1h0v.27h0v.27h0v.27h0v1.38h0v.27h0v.27h0v1.38h0V102h0v.27h0v1.38h0v.69a2.63,2.63,0,0,0,2.77,2.72h1a18.49,18.49,0,0,0-2.35,3.15,2.5,2.5,0,0,0-.39,1.43,1.31,1.31,0,0,0,0,.28,1.31,1.31,0,0,0,0,.28,1.31,1.31,0,0,0,0,.28,1.31,1.31,0,0,0,0,.28,1.31,1.31,0,0,0,0,.28,1.22,1.22,0,0,0,0,.27,1.31,1.31,0,0,0,0,.28,1.31,1.31,0,0,0,0,.28.08.08,0,0,0,0,0,3,3,0,0,0-.63,1.92v22.48a2.57,2.57,0,0,0,2.7,2.79H138a2.57,2.57,0,0,0,2.7-2.79V115.88A2.61,2.61,0,0,0,138,113Z"/><path class="cls-2" d="M182.69,103.08c-.08-.19-.19-.36-.28-.54.05-.49.08-1,.09-1.48,0-.06,0-.12,0-.18a.34.34,0,0,0,0-.1c0-.06,0-.12,0-.18a.34.34,0,0,0,0-.1c0-.06,0-.12,0-.18a.31.31,0,0,0,0-.1c0-.06,0-.12,0-.18a.31.31,0,0,0,0-.1c0-.06,0-.11,0-.18a.28.28,0,0,0,0-.09c0-.07,0-.12,0-.18a.38.38,0,0,0,0-.1c0-.06,0-.12,0-.18a.38.38,0,0,0,0-.1c0-.06,0-.12,0-.18a.38.38,0,0,0,0-.1c0-.06,0-.12,0-.18a.34.34,0,0,0,0-.1c0-.06,0-.12,0-.18a.31.31,0,0,0,0-.1c0-.06,0-.12,0-.18a.31.31,0,0,0,0-.1c0-.06,0-.12,0-.18a.28.28,0,0,0,0-.09c0-.07,0-.12,0-.18a.38.38,0,0,0,0-.1c0-.06,0-.12,0-.18a.38.38,0,0,0,0-.1c0-.06,0-.12,0-.18a.38.38,0,0,0,0-.1c0-.06,0-.12,0-.18a.34.34,0,0,0,0-.1c0-.06,0-.12,0-.18a.31.31,0,0,0,0-.1c0-.06,0-.12,0-.18a.31.31,0,0,0,0-.1c0-.06,0-.12,0-.18a.28.28,0,0,0,0-.09c0-.07,0-.12,0-.19a.28.28,0,0,0,0-.09c0-.06,0-.12,0-.18a.38.38,0,0,0,0-.1c0-.06,0-.12,0-.18a.38.38,0,0,0,0-.1c0-.06,0-.12,0-.18a.34.34,0,0,0,0-.1c0-.06,0-.12,0-.18a.31.31,0,0,0,0-.1c0-.06,0-.12,0-.18a.31.31,0,0,0,0-.1c0-.06,0-.12,0-.18a.28.28,0,0,0,0-.09c0-.07,0-.12,0-.19a.28.28,0,0,0,0-.09c0-.06,0-.12,0-.18a.38.38,0,0,0,0-.1c0-.06,0-.12,0-.18a.38.38,0,0,0,0-.1c0-.06,0-.12,0-.18a.34.34,0,0,0,0-.1c0-.06,0-.12,0-.18a.31.31,0,0,0,0-.1c0-.06,0-.12,0-.18a.31.31,0,0,0,0-.1c0-.06,0-.12,0-.18a.31.31,0,0,0,0-.1c0-.06,0-.11,0-.18a.28.28,0,0,0,0-.09c0-.07,0-.12,0-.18a.38.38,0,0,0,0-.1c0-.06,0-.12,0-.18a.38.38,0,0,0,0-.1c0-.06,0-.12,0-.18a.38.38,0,0,0,0-.1c0-.06,0-.12,0-.18a.34.34,0,0,0,0-.1c0-.06,0-.12,0-.18a.31.31,0,0,0,0-.1c0-.06,0-.12,0-.18a.31.31,0,0,0,0-.1c0-.06,0-.11,0-.18a.28.28,0,0,0,0-.09c0-.07,0-.12,0-.18a.38.38,0,0,0,0-.1c0-.06,0-.12,0-.18a.38.38,0,0,0,0-.1c0-.06,0-.12,0-.18a.38.38,0,0,0,0-.1c0-.06,0-.12,0-.18a.34.34,0,0,0,0-.1c0-.06,0-.12,0-.18a.31.31,0,0,0,0-.1c0-.06,0-.12,0-.18a.31.31,0,0,0,0-.1c0-.06,0-.12,0-.18a.28.28,0,0,0,0-.09c0-.07,0-.12,0-.18a.38.38,0,0,0,0-.1A17.84,17.84,0,0,0,181,79.74a15.72,15.72,0,0,0-4.1-5.53,17.07,17.07,0,0,0-6.09-3.29,25.22,25.22,0,0,0-7.43-1.06A25.68,25.68,0,0,0,155.63,71a15.92,15.92,0,0,0-10.48,10,25.45,25.45,0,0,0-1.45,9.07v.27h0v1.38h0V92h0v.27h0v.27h0v1.1h0v.27h0v.27h0v.27h0v1.1h0v.27h0v.27h0v.27h0v1.1h0v.27h0v.27h0v.27h0v1.38h0v.27h0v.27h0v1.38h0V102h0v.27h0v.27h0v1.1h0v.69a2.94,2.94,0,0,0,.71,1.87,3,3,0,0,0-.78,2v14.27a22.21,22.21,0,0,0,1.65,9.07,16.24,16.24,0,0,0,4.56,6.11,17.48,17.48,0,0,0,6.7,3.35,30.88,30.88,0,0,0,7.88,1,26.54,26.54,0,0,0,7.55-1,18,18,0,0,0,6.32-3.27,16.12,16.12,0,0,0,4.31-5.52,17.52,17.52,0,0,0,1.59-7.67V110.88A19.45,19.45,0,0,0,182.69,103.08Z"/><path class="cls-3" d="M79.34,84.89c-2.34,0-2.83.93-3,1.23-.4.77-.88,2.34-.88,5.5v14.59c0,3.22.46,4.79.85,5.55.16.29.62,1.18,3,1.18s2.83-.9,3-1.2c.4-.75.88-2.31.88-5.53V91.62c0-3.17-.47-4.75-.86-5.51C82.12,85.81,81.65,84.89,79.34,84.89Z"/><path class="cls-3" d="M60.29,29.15c2.52,0,4.39-.46,5.55-1.38s1.61-2.26,1.61-4.28-.52-3.28-1.6-4.12S62.82,18,60.29,18H58.83a2.51,2.51,0,0,1,.66,1.79v9.34Z"/><path class="cls-3" d="M97.44,35.17a2.55,2.55,0,0,1,1.38-.37h2.73l-1.94-7.6Z"/><path class="cls-3" d="M36,52.06a15,15,0,0,0,4.08-5.3,17.54,17.54,0,0,0,1.49-7.5,13.82,13.82,0,0,0-1.05-5.54,12.43,12.43,0,0,0-3-4.21,20.66,20.66,0,0,0-4.69-3.11,54.28,54.28,0,0,0-6.09-2.51,33,33,0,0,1-5.59-2.41,2.18,2.18,0,0,1-1.21-2c0-2.19.9-3.08,3.1-3.08a3.85,3.85,0,0,1,2.49.65,1.69,1.69,0,0,1,.67,1.39v.31a2.37,2.37,0,0,0,2.49,2.56h9.89a2.38,2.38,0,0,0,2.48-2.5v-.25A13.7,13.7,0,0,0,35.77,7.46,17.11,17.11,0,0,0,30,4.54a25.59,25.59,0,0,0-7.18-1,26.2,26.2,0,0,0-7.23.94,16,16,0,0,0-5.83,3,13.85,13.85,0,0,0-3.87,5.2,18.38,18.38,0,0,0-1.39,7.45,13.38,13.38,0,0,0,1.26,6A13.12,13.12,0,0,0,9.1,30.34a20.83,20.83,0,0,0,4.8,2.9c1.75.78,3.65,1.56,5.66,2.3.78.3,1.62.59,2.5.88a11.39,11.39,0,0,1,2.15,1,5.36,5.36,0,0,1,1.48,1.24A2.07,2.07,0,0,1,26.13,40a3.49,3.49,0,0,1-.77,2.48,4.12,4.12,0,0,1-2.81.79,6,6,0,0,1-3.16-.65,1.45,1.45,0,0,1-.73-1.33v-.36a2.37,2.37,0,0,0-2.48-2.57H6.29a2.37,2.37,0,0,0-2.48,2.5v.25a13.47,13.47,0,0,0,1.51,6.4,14.51,14.51,0,0,0,4.09,4.74,18.29,18.29,0,0,0,6,2.9,25.91,25.91,0,0,0,7.24,1,27.1,27.1,0,0,0,7.35-1A16.84,16.84,0,0,0,36,52.06ZM22.61,53.57a23.51,23.51,0,0,1-6.54-.87,15.88,15.88,0,0,1-5.14-2.5,11.69,11.69,0,0,1-3.37-3.91A10.81,10.81,0,0,1,6.34,41.1v-.2h9.78v.36A4,4,0,0,0,18,44.74a8.14,8.14,0,0,0,4.55,1.07,6.12,6.12,0,0,0,4.65-1.6A5.93,5.93,0,0,0,28.67,40a4.55,4.55,0,0,0-1-3,8,8,0,0,0-2.15-1.82A13,13,0,0,0,22.85,34c-.85-.28-1.65-.56-2.41-.84h0c-2-.73-3.81-1.48-5.51-2.24a18.87,18.87,0,0,1-4.23-2.56A10.42,10.42,0,0,1,8,25a10.81,10.81,0,0,1-1-4.88A15.8,15.8,0,0,1,8.18,13.7a11.19,11.19,0,0,1,3.16-4.25A13.56,13.56,0,0,1,16.25,7a24.27,24.27,0,0,1,6.54-.84A23.17,23.17,0,0,1,29.26,7,14.52,14.52,0,0,1,34.2,9.46a11.19,11.19,0,0,1,4.31,9.12v.19H28.73v-.31a4.25,4.25,0,0,0-1.57-3.33A6.23,6.23,0,0,0,23,13.88c-3.63,0-5.63,2-5.63,5.62a4.7,4.7,0,0,0,2.43,4.16,34.21,34.21,0,0,0,6.06,2.63,53.1,53.1,0,0,1,5.81,2.39,18.14,18.14,0,0,1,4.1,2.72,9.74,9.74,0,0,1,2.42,3.34,11.12,11.12,0,0,1,.84,4.52,15,15,0,0,1-1.25,6.42,12.35,12.35,0,0,1-3.38,4.4,14.37,14.37,0,0,1-5.16,2.62A24.38,24.38,0,0,1,22.61,53.57Z"/><path class="cls-3" d="M76.11,37.61a16.44,16.44,0,0,0,4.31-6.05,20.45,20.45,0,0,0,1.46-7.88V22.45c0-5.74-1.95-10.23-5.81-13.35S67,4.49,60.29,4.49H45.79A2.37,2.37,0,0,0,43.24,7v8.53a2.32,2.32,0,0,0,2,2.45,2.48,2.48,0,0,0-.7,1.84V52.69A2.33,2.33,0,0,0,47,55.19H57a2.36,2.36,0,0,0,2.54-2.5v-10h.8a29,29,0,0,0,9-1.29A19.24,19.24,0,0,0,76.11,37.61ZM60.29,40.13h-1a7.19,7.19,0,0,1-.92-.05L57,39.92V52.65H47.06V19.86H57V31.5l1.12.13c.42,0,.82.07,1.21.07h1c3.11,0,5.51-.65,7.12-1.93S70,26.3,70,23.49s-.87-4.8-2.59-6.13-4-1.89-7.11-1.89H45.78V7h14.5c6.1,0,10.88,1.36,14.19,4.05s4.87,6.37,4.87,11.37v1.23a17.9,17.9,0,0,1-1.27,6.9,13.86,13.86,0,0,1-3.64,5.11,16.57,16.57,0,0,1-6,3.28A26.77,26.77,0,0,1,60.29,40.13ZM58.83,18h1.46c2.53,0,4.4.45,5.56,1.35s1.6,2.19,1.6,4.12-.52,3.42-1.61,4.28-3,1.38-5.55,1.38h-.8V19.81A2.51,2.51,0,0,0,58.83,18Z"/><path class="cls-3" d="M77.29,54.24a2.32,2.32,0,0,0,2,.95H89.78a2.72,2.72,0,0,0,2.7-1.81l1.67-6.12.08.1a2.41,2.41,0,0,0,2,.9H105l1.27,5a2.52,2.52,0,0,0,2.63,1.94h10.86a2.24,2.24,0,0,0,2-.92,2.16,2.16,0,0,0,.08-2.14L108,8.4a2.16,2.16,0,0,0-2-1.7,1.83,1.83,0,0,0-.91.23,2.23,2.23,0,0,0-.44-1.61,2.29,2.29,0,0,0-1.93-.83H94.14a2.7,2.7,0,0,0-2.66,1.87L77.18,52A2.23,2.23,0,0,0,77.29,54.24ZM93.94,7.06a.44.44,0,0,1,.2,0h8.33L90.09,52.54c0,.08-.08.11-.31.11H79.64L93.88,7.19A.87.87,0,0,1,93.94,7.06Zm15,45.59c-.16,0-.21,0-.17,0h0L107,45.72H96.44l2.19-8.11c.07-.21.13-.25.19-.27h6L102,26.16a1.75,1.75,0,0,1,.08-1l4-14.64,13.34,42.11ZM101.55,34.8H98.82a2.55,2.55,0,0,0-1.38.37l2.17-8Z"/><path class="cls-3" d="M126.5,52a16.17,16.17,0,0,0,6.48,3.2,33.35,33.35,0,0,0,8,.89,33.8,33.8,0,0,0,7.81-.86,16.14,16.14,0,0,0,6.48-3.1,14.57,14.57,0,0,0,4.29-5.9A23.47,23.47,0,0,0,161,37.36V36.25a2.36,2.36,0,0,0-2.48-2.56h-9.89a2.39,2.39,0,0,0-2.54,2.56v1c0,2.23-.38,3.82-1.14,4.75s-2,1.28-4,1.28-3.37-.44-4.11-1.3-1.18-2.51-1.18-4.73V22.45c0-2.22.4-3.81,1.18-4.73s2.12-1.3,4.11-1.3,3.31.45,4,1.33a6.49,6.49,0,0,1,1.15,4.08v.93a2.39,2.39,0,0,0,2.54,2.56h9.89a2.37,2.37,0,0,0,2.48-2.5v-.56a23.05,23.05,0,0,0-1.46-8.67,14.68,14.68,0,0,0-4.22-5.9,16.34,16.34,0,0,0-6.43-3.19,32,32,0,0,0-8-.93,33.35,33.35,0,0,0-8,.89,16.17,16.17,0,0,0-6.48,3.2,14.82,14.82,0,0,0-4.26,6.1,25.58,25.58,0,0,0-1.45,9.18V36.8A25.3,25.3,0,0,0,122.24,46,14.72,14.72,0,0,0,126.5,52Zm-3.18-29.08a22.94,22.94,0,0,1,1.28-8.25,12.19,12.19,0,0,1,3.51-5.06,13.48,13.48,0,0,1,5.48-2.69,30.29,30.29,0,0,1,7.34-.83,29.8,29.8,0,0,1,7.33.85,14,14,0,0,1,5.45,2.7,12.29,12.29,0,0,1,3.49,4.9,20.6,20.6,0,0,1,1.27,7.7v.51h-9.84v-.93a9,9,0,0,0-1.7-5.66c-1.2-1.52-3.22-2.29-6-2.29s-4.8.73-6,2.19-1.79,3.5-1.79,6.38V37.23c0,2.88.59,5,1.79,6.38s3.27,2.2,6,2.2,4.78-.75,6-2.22,1.72-3.49,1.72-6.36v-1h9.84v1.11a20.92,20.92,0,0,1-1.3,7.91,12.2,12.2,0,0,1-3.54,4.9,13.82,13.82,0,0,1-5.48,2.61,31.44,31.44,0,0,1-7.22.79,30.82,30.82,0,0,1-7.34-.82,13.67,13.67,0,0,1-5.48-2.69,12.32,12.32,0,0,1-3.51-5,22.69,22.69,0,0,1-1.28-8.22Z"/><path class="cls-3" d="M193.77,42H179.21V35.75H191a2.34,2.34,0,0,0,2.42-2.57V26a2.31,2.31,0,0,0-2.42-2.5H179.21v-4a2.51,2.51,0,0,0-.67-1.79h14.81a2.36,2.36,0,0,0,2.48-2.56V7a2.33,2.33,0,0,0-2.48-2.5H165.19A2.36,2.36,0,0,0,162.65,7v8.22a2.32,2.32,0,0,0,2,2.45,2.5,2.5,0,0,0-.7,1.84V52.69a2.36,2.36,0,0,0,2.54,2.5h27.3a2.33,2.33,0,0,0,2.42-2.56V44.47A2.31,2.31,0,0,0,193.77,42Zm-.11,10.66v0h-27.2V19.55h10.21v6.5h14.26V33.2H176.67V44.52h17ZM193.29,7v8.12h-28.1V7Z"/><path class="cls-3" d="M52.65,112.74h-16a11.7,11.7,0,0,0,.86-.8l0,0A58.76,58.76,0,0,1,43,106.75a61.57,61.57,0,0,0,5.72-5.43A30.31,30.31,0,0,0,53.18,95a16.61,16.61,0,0,0,1.9-7.94,19.09,19.09,0,0,0-1.44-7.63,15.43,15.43,0,0,0-4-5.53,16.81,16.81,0,0,0-6-3.3,24.39,24.39,0,0,0-7.3-1.06,24.9,24.9,0,0,0-7.65,1.13,16.18,16.18,0,0,0-6.2,3.65,16.63,16.63,0,0,0-4,6.36,26.07,26.07,0,0,0-1.41,9v.69a2.63,2.63,0,0,0,2.77,2.72h10a2.64,2.64,0,0,0,2.77-2.86v-1a8.74,8.74,0,0,1,.87-4.18c.28-.5.84-1.18,2.52-1.18a4.56,4.56,0,0,1,1.84.31,2.67,2.67,0,0,1,1,.78,2.76,2.76,0,0,1,.52,1.14,9,9,0,0,1,.17,1.76,4.42,4.42,0,0,1-1,2.5,25.76,25.76,0,0,1-3,3.43c-1.28,1.22-2.73,2.48-4.31,3.75s-3.24,2.65-4.82,4-3.08,2.74-4.46,4.1A20.52,20.52,0,0,0,18.45,110a2.31,2.31,0,0,0-.12,2.42,2.11,2.11,0,0,0,.52.61,2.71,2.71,0,0,0-1.42,2.59v8.83a2.57,2.57,0,0,0,2.7,2.79H52.65a2.57,2.57,0,0,0,2.7-2.79V115.6A2.61,2.61,0,0,0,52.65,112.74Zm-.13,2.86v8.78H20.26v-8.79H52.52ZM40.82,92.08a7.19,7.19,0,0,0,1.52-4.16,11.86,11.86,0,0,0-.23-2.35,5.71,5.71,0,0,0-1-2.28,5.52,5.52,0,0,0-2-1.62,7.08,7.08,0,0,0-3-.58,5.26,5.26,0,0,0-5,2.66,11.49,11.49,0,0,0-1.22,5.54v1H19.85v-.56a23.52,23.52,0,0,1,1.23-8.06,13.93,13.93,0,0,1,3.35-5.29,13.16,13.16,0,0,1,5.11-3,22,22,0,0,1,6.78-1,21.62,21.62,0,0,1,6.45.92,14.07,14.07,0,0,1,5,2.74A12.6,12.6,0,0,1,51,80.62a16.08,16.08,0,0,1,1.21,6.48,13.82,13.82,0,0,1-1.56,6.59,28,28,0,0,1-4.09,5.7,61.5,61.5,0,0,1-5.47,5.19A60.14,60.14,0,0,0,35.5,110a7.65,7.65,0,0,1-.75.68.92.92,0,0,1-.33,0H21.36a20.08,20.08,0,0,1,2.5-2.94c1.35-1.31,2.81-2.65,4.34-4s3.14-2.66,4.74-3.94,3.16-2.64,4.49-3.92A27.71,27.71,0,0,0,40.82,92.08Z"/><path class="cls-3" d="M93.6,74.24a14.52,14.52,0,0,0-6.36-3.64,29.13,29.13,0,0,0-7.9-1,29.52,29.52,0,0,0-8,1A14.58,14.58,0,0,0,65,74.24,17,17,0,0,0,61,81a31.82,31.82,0,0,0-1.4,10.15v15.55A31.78,31.78,0,0,0,61,116.84a17,17,0,0,0,4,6.76,14.62,14.62,0,0,0,6.36,3.64,31.56,31.56,0,0,0,15.84,0,14.68,14.68,0,0,0,6.41-3.64,17.11,17.11,0,0,0,4-6.75A32.2,32.2,0,0,0,99,106.69V91.14A32.13,32.13,0,0,0,97.65,81,16.94,16.94,0,0,0,93.6,74.24Zm2.61,32.45A29.25,29.25,0,0,1,95,115.92a14.25,14.25,0,0,1-3.35,5.65,11.86,11.86,0,0,1-5.18,2.93,26.74,26.74,0,0,1-7.17.91,26,26,0,0,1-7.14-.91A11.92,11.92,0,0,1,67,121.57a14.24,14.24,0,0,1-3.34-5.65,28.94,28.94,0,0,1-1.25-9.23V91.14a29,29,0,0,1,1.25-9.23A14.19,14.19,0,0,1,67,76.27a11.84,11.84,0,0,1,5.15-2.94,26.69,26.69,0,0,1,7.21-.9,26.29,26.29,0,0,1,7.13.9,11.78,11.78,0,0,1,5.15,2.94A14.28,14.28,0,0,1,95,81.91a29.34,29.34,0,0,1,1.24,9.23Z"/><path class="cls-3" d="M79.34,82.05c-3.34,0-4.83,1.49-5.49,2.74a14.9,14.9,0,0,0-1.21,6.83v14.59c0,3.09.38,5.34,1.17,6.86.65,1.24,2.12,2.72,5.46,2.72,2.67,0,4.52-.91,5.48-2.7.82-1.53,1.22-3.78,1.22-6.88V91.62a15.29,15.29,0,0,0-1.17-6.81C84.15,83.55,82.68,82.05,79.34,82.05Zm3.8,24.16c0,3.22-.48,4.78-.88,5.53-.16.3-.65,1.2-3,1.2s-2.79-.89-3-1.18c-.39-.76-.85-2.33-.85-5.55V91.62c0-3.16.48-4.73.88-5.5.16-.3.65-1.23,3-1.23s2.78.92,2.94,1.22c.39.76.86,2.34.86,5.51Z"/><path class="cls-3" d="M138,112.74H122a10,10,0,0,0,.86-.8l0,0a58.9,58.9,0,0,1,5.39-5.15,62.72,62.72,0,0,0,5.71-5.43A30,30,0,0,0,138.54,95a16.72,16.72,0,0,0,1.89-7.94A18.92,18.92,0,0,0,139,79.47a15.43,15.43,0,0,0-4-5.53,16.81,16.81,0,0,0-6-3.3,24.3,24.3,0,0,0-7.3-1.06A24.83,24.83,0,0,0,114,70.71a16,16,0,0,0-6.2,3.65,16.76,16.76,0,0,0-4,6.36,26.3,26.3,0,0,0-1.41,9v.69a2.63,2.63,0,0,0,2.77,2.72h10a2.64,2.64,0,0,0,2.77-2.86v-1a8.73,8.73,0,0,1,.88-4.18c.27-.5.84-1.18,2.52-1.18a4.5,4.5,0,0,1,1.83.31,2.67,2.67,0,0,1,1,.78,2.76,2.76,0,0,1,.52,1.14,8.28,8.28,0,0,1,.17,1.76,4.48,4.48,0,0,1-1,2.5,25.89,25.89,0,0,1-3,3.43c-1.27,1.22-2.72,2.48-4.31,3.75s-3.24,2.65-4.81,4-3.08,2.74-4.47,4.1a20.77,20.77,0,0,0-3.43,4.27,2.31,2.31,0,0,0-.13,2.42,2,2,0,0,0,.53.61,2.7,2.7,0,0,0-1.43,2.59v8.83a2.57,2.57,0,0,0,2.7,2.79H138a2.57,2.57,0,0,0,2.7-2.79V115.6A2.61,2.61,0,0,0,138,112.74Zm-.13,2.86v8.78H105.61v-8.79h32.26ZM126.18,92.08a7.19,7.19,0,0,0,1.52-4.16,11.14,11.14,0,0,0-.24-2.35,5.58,5.58,0,0,0-1-2.28,5.52,5.52,0,0,0-2-1.62,7,7,0,0,0-3-.58,5.27,5.27,0,0,0-5,2.66,11.49,11.49,0,0,0-1.22,5.54v1h-9.9v-.56a23.28,23.28,0,0,1,1.23-8.06,13.79,13.79,0,0,1,3.34-5.29,13.3,13.3,0,0,1,5.11-3,22,22,0,0,1,6.78-1,21.73,21.73,0,0,1,6.46.92,14,14,0,0,1,5,2.74,12.62,12.62,0,0,1,3.29,4.53,16.08,16.08,0,0,1,1.2,6.48A13.71,13.71,0,0,1,136,93.69a27.26,27.26,0,0,1-4.09,5.7,62.76,62.76,0,0,1-5.46,5.19,59.06,59.06,0,0,0-5.64,5.38,6.65,6.65,0,0,1-.75.68.82.82,0,0,1-.32,0H106.72a19.48,19.48,0,0,1,2.5-2.94c1.34-1.31,2.8-2.65,4.34-4s3.14-2.66,4.73-3.94,3.16-2.64,4.5-3.92A27.71,27.71,0,0,0,126.18,92.08Z"/><path class="cls-3" d="M179.14,98a16,16,0,0,0,2.08-3.92,22.46,22.46,0,0,0,1.28-7A18.63,18.63,0,0,0,181,79.46a15.72,15.72,0,0,0-4.1-5.53,17.07,17.07,0,0,0-6.09-3.29,25.22,25.22,0,0,0-7.43-1.06,25.68,25.68,0,0,0-7.77,1.13,16,16,0,0,0-10.48,10,25.45,25.45,0,0,0-1.45,9.07v.69a2.63,2.63,0,0,0,2.77,2.72h10.36a2.63,2.63,0,0,0,2.77-2.86v-1a9,9,0,0,1,.85-4.19c.27-.5.83-1.17,2.61-1.17a5,5,0,0,1,2,.33,2.56,2.56,0,0,1,1,.76,2.88,2.88,0,0,1,.51,1.14,8.13,8.13,0,0,1,.18,1.76,4.19,4.19,0,0,1-1.18,3.4,7.07,7.07,0,0,1-4.18,1.21h-1.22a2.64,2.64,0,0,0-2.84,2.79V102a2.64,2.64,0,0,0,2.84,2.8h2c5.58.25,6.3,2.78,6.3,5a4.37,4.37,0,0,1-1,2.9c-.59.73-1.74,1.09-3.41,1.09a4.53,4.53,0,0,1-3.4-1.15,4.78,4.78,0,0,1-1.14-3.52v-1a2.65,2.65,0,0,0-2.78-2.86H146.4a2.65,2.65,0,0,0-2.77,2.79v.62a22.21,22.21,0,0,0,1.65,9.07,16.32,16.32,0,0,0,4.56,6.11,17.48,17.48,0,0,0,6.7,3.35,30.88,30.88,0,0,0,7.88,1,26.54,26.54,0,0,0,7.55-1.05,18,18,0,0,0,6.32-3.27,16.12,16.12,0,0,0,4.31-5.52,17.52,17.52,0,0,0,1.59-7.67,19.45,19.45,0,0,0-1.5-7.8A12.85,12.85,0,0,0,179.14,98Zm-21.88,26.36a14.56,14.56,0,0,1-5.63-2.81,13.51,13.51,0,0,1-3.77-5.06,19.56,19.56,0,0,1-1.4-7.91V108H156.7v1a7.57,7.57,0,0,0,2,5.52,7.28,7.28,0,0,0,5.41,2c2.56,0,4.44-.72,5.6-2.13a7.22,7.22,0,0,0,1.64-4.71c0-3.36-1.56-7.45-9.07-7.79h-2V95.37h1.28a9.74,9.74,0,0,0,5.92-1.86,6.87,6.87,0,0,0,2.21-5.59,11.86,11.86,0,0,0-.23-2.35,5.66,5.66,0,0,0-1.05-2.28,5.44,5.44,0,0,0-2.15-1.64,7.91,7.91,0,0,0-3.14-.56c-3.05,0-4.46,1.45-5.11,2.67a11.81,11.81,0,0,0-1.18,5.53v1H146.53v-.56a22.75,22.75,0,0,1,1.26-8,13.12,13.12,0,0,1,8.69-8.3,23,23,0,0,1,6.92-1,22.3,22.3,0,0,1,6.6.93,14.2,14.2,0,0,1,5.09,2.74,12.67,12.67,0,0,1,3.35,4.53,15.81,15.81,0,0,1,1.23,6.42,19.38,19.38,0,0,1-1.1,6.06,12.19,12.19,0,0,1-2.51,4.18l-1.17,1.23,1.42.94a10,10,0,0,1,3.78,4.48,16.62,16.62,0,0,1,1.27,6.66,14.73,14.73,0,0,1-1.31,6.43,13.15,13.15,0,0,1-3.55,4.55,15.17,15.17,0,0,1-5.33,2.76A27.22,27.22,0,0,1,157.26,124.39Z"/><path class="cls-4" d="M39.06,39.26a14.84,14.84,0,0,1-1.25,6.41,12.41,12.41,0,0,1-3.38,4.41,14.22,14.22,0,0,1-5.16,2.62q-.8.22-1.65.39a26,26,0,0,1-5,.48,25.11,25.11,0,0,1-4.92-.48c-.56-.11-1.09-.24-1.61-.39a15.92,15.92,0,0,1-5.15-2.49A12.06,12.06,0,0,1,7.55,46.3a11,11,0,0,1-1.21-5.21V40.9h9.78v.37A4.05,4.05,0,0,0,18,44.75a8.3,8.3,0,0,0,4.56,1,6.12,6.12,0,0,0,4.65-1.59A5.92,5.92,0,0,0,28.68,40a4.63,4.63,0,0,0-1-3,8,8,0,0,0-2.16-1.82A13.87,13.87,0,0,0,22.85,34c-.85-.28-1.66-.56-2.41-.85l-1.1-.42c-1.55-.6-3-1.19-4.4-1.82a18.68,18.68,0,0,1-4.24-2.54A10.43,10.43,0,0,1,8,25a10.6,10.6,0,0,1-1-4.87,15.72,15.72,0,0,1,1.17-6.41,11.34,11.34,0,0,1,3.15-4.27A13.32,13.32,0,0,1,16.26,7a23.79,23.79,0,0,1,6.53-.85A22.49,22.49,0,0,1,29.26,7a14.91,14.91,0,0,1,4.95,2.46,11.67,11.67,0,0,1,3.17,3.91,11.62,11.62,0,0,1,1.13,5.22v.19H28.73v-.31a4.27,4.27,0,0,0-1.56-3.33A6.22,6.22,0,0,0,23,13.87c-3.63,0-5.63,2-5.63,5.64a4.71,4.71,0,0,0,2.43,4.15,34.38,34.38,0,0,0,6.07,2.63,51.88,51.88,0,0,1,5.79,2.39A18,18,0,0,1,35.8,31.4,8.48,8.48,0,0,1,37,32.73a9.42,9.42,0,0,1,1.21,2A11.5,11.5,0,0,1,39.06,39.26Z"/><path class="cls-4" d="M79.34,22.45v1.22a17.92,17.92,0,0,1-1.26,6.91A13.22,13.22,0,0,1,77,32.73a13.55,13.55,0,0,1-2.53,3,17,17,0,0,1-6,3.27,26.76,26.76,0,0,1-8.19,1.17h-1a7.39,7.39,0,0,1-.91-.07L57,39.92V52.65H47.06V19.85H57V31.5l1.12.12a8.34,8.34,0,0,0,1.2.08h1c3.1,0,5.5-.65,7.13-1.93S70,26.3,70,23.49s-.87-4.8-2.59-6.13-4-1.89-7.11-1.89H45.79V7h14.5c6.1,0,10.88,1.36,14.19,4S79.34,17.45,79.34,22.45Z"/><path class="cls-4" d="M119.37,52.65H108.88c-.09,0-.14,0-.16,0L107,45.71H96.44l2.19-8.09c.07-.22.13-.27.18-.28h6l-1.18-4.61L102,26.15a1.6,1.6,0,0,1,.09-1l4-14.63,7,22.19Z"/><path class="cls-4" d="M102.48,7l-7,25.69-5.4,19.8c0,.09-.07.12-.3.12H79.63l6.24-19.92,8-25.54a.37.37,0,0,1,.06-.13.63.63,0,0,1,.2,0Z"/><path class="cls-4" d="M148.63,22.75v-.91a8.92,8.92,0,0,0-1.7-5.67c-1.21-1.52-3.23-2.3-6-2.3s-4.8.74-6,2.2-1.79,3.5-1.79,6.38V37.24c0,2.87.6,5,1.79,6.37s3.27,2.19,6,2.19,4.78-.74,6-2.21,1.72-3.49,1.72-6.35v-1h9.84v1.11a20.77,20.77,0,0,1-1.31,7.92,12,12,0,0,1-3.52,4.9,14,14,0,0,1-5.48,2.61c-.51.11-1,.23-1.56.31a34,34,0,0,1-11.38,0c-.56-.1-1.11-.21-1.64-.34a13.84,13.84,0,0,1-5.47-2.7,12,12,0,0,1-3.51-5,22.64,22.64,0,0,1-1.28-8.21V22.94a22.85,22.85,0,0,1,1.28-8.24,12.08,12.08,0,0,1,3.51-5.08,13.82,13.82,0,0,1,5.47-2.69,31,31,0,0,1,7.35-.82,29.86,29.86,0,0,1,7.33.85,14,14,0,0,1,5.45,2.7,12.31,12.31,0,0,1,3.49,4.9,20.62,20.62,0,0,1,1.27,7.71v.5h-9.84Z"/><path class="cls-4" d="M165.19,15.16h28.1V7H165.2v8.13Z"/><path class="cls-4" d="M193.66,44.53v8.12h-27.2V19.55h10.21v6.5h14.26v7.13H176.67V44.52Z"/><rect class="cls-4" x="20.26" y="115.58" width="32.26" height="8.79"/><path class="cls-4" d="M52.24,87.1a13.74,13.74,0,0,1-1.56,6.59,26.64,26.64,0,0,1-4.08,5.69q-1.6,1.73-3.38,3.35c-.68.64-1.38,1.25-2.09,1.84A60.27,60.27,0,0,0,35.5,110a9.21,9.21,0,0,1-.75.68.92.92,0,0,1-.33,0h-13a19.39,19.39,0,0,1,2.5-2.94c1.34-1.32,2.8-2.66,4.34-4l1.21-1c1.16-1,2.34-2,3.52-2.9,1.65-1.33,3.16-2.65,4.5-3.92a29.14,29.14,0,0,0,3.39-3.83,7.24,7.24,0,0,0,1.51-4.15,11.88,11.88,0,0,0-.23-2.36,5.67,5.67,0,0,0-1-2.27A5.31,5.31,0,0,0,39,81.67a7,7,0,0,0-3-.58,5.25,5.25,0,0,0-5,2.65,11.56,11.56,0,0,0-1.23,5.55v1H19.86v-.56a23.18,23.18,0,0,1,1.23-8.07,13.64,13.64,0,0,1,3.34-5.28,13.23,13.23,0,0,1,5.11-3,22,22,0,0,1,6.78-1,21.34,21.34,0,0,1,6.45.93,13.62,13.62,0,0,1,5,2.73A12.5,12.5,0,0,1,51,80.62,16.08,16.08,0,0,1,52.24,87.1Z"/><path class="cls-4" d="M95,81.91a14.21,14.21,0,0,0-3.35-5.64,11.88,11.88,0,0,0-5.15-2.94,26.29,26.29,0,0,0-7.13-.9,26.64,26.64,0,0,0-7.21.9A11.94,11.94,0,0,0,67,76.27a14.19,14.19,0,0,0-3.34,5.64,29,29,0,0,0-1.25,9.24v15.54a29,29,0,0,0,1.25,9.24A14.15,14.15,0,0,0,67,121.56a11.84,11.84,0,0,0,5.15,2.94,26.33,26.33,0,0,0,7.13.91,26.71,26.71,0,0,0,7.18-.91,11.72,11.72,0,0,0,5.18-2.94A14.17,14.17,0,0,0,95,115.93a29.36,29.36,0,0,0,1.24-9.24V91.15A29.32,29.32,0,0,0,95,81.91Zm-9,24.31c0,3.09-.4,5.34-1.23,6.87-1,1.79-2.8,2.7-5.48,2.7-3.33,0-4.8-1.48-5.45-2.71-.79-1.53-1.17-3.77-1.17-6.86V91.62a15,15,0,0,1,1.21-6.82c.66-1.26,2.15-2.75,5.49-2.75s4.81,1.5,5.45,2.76A15.27,15.27,0,0,1,86,91.62Z"/><rect class="cls-4" x="105.61" y="115.58" width="32.26" height="8.79"/><path class="cls-4" d="M137.6,87.1A13.85,13.85,0,0,1,136,93.69,27,27,0,0,1,132,99.38c-1.06,1.15-2.19,2.27-3.37,3.35-.68.64-1.38,1.25-2.09,1.84a60.27,60.27,0,0,0-5.63,5.39c-.31.29-.56.53-.76.68a.82.82,0,0,1-.32,0H106.71a21.29,21.29,0,0,1,2.5-2.94c1.36-1.32,2.82-2.66,4.34-4l1.22-1c1.15-1,2.35-2,3.53-2.9,1.65-1.33,3.15-2.65,4.49-3.92a27,27,0,0,0,3.38-3.83,7.13,7.13,0,0,0,1.53-4.15,11.88,11.88,0,0,0-.23-2.36,5.81,5.81,0,0,0-1-2.27,5.54,5.54,0,0,0-2.06-1.63,7,7,0,0,0-3-.58,5.28,5.28,0,0,0-5,2.65,11.56,11.56,0,0,0-1.22,5.55v1H105.2v-.56a23.4,23.4,0,0,1,1.24-8.07,13.64,13.64,0,0,1,3.34-5.28,13.2,13.2,0,0,1,5.12-3,22,22,0,0,1,6.77-1,21.41,21.41,0,0,1,6.46.93,13.79,13.79,0,0,1,5,2.73,12.5,12.5,0,0,1,3.29,4.53A16.08,16.08,0,0,1,137.6,87.1Z"/><path class="cls-4" d="M181.37,110.59a14.74,14.74,0,0,1-1.32,6.44,13.38,13.38,0,0,1-3.55,4.56,15.32,15.32,0,0,1-5.33,2.75,27.32,27.32,0,0,1-13.91,0,14.69,14.69,0,0,1-5.63-2.8,13.5,13.5,0,0,1-3.76-5.07,19.51,19.51,0,0,1-1.41-7.91v-.56h10.25v1a7.61,7.61,0,0,0,2,5.53,7.32,7.32,0,0,0,5.41,2c2.56,0,4.44-.71,5.6-2.12a7.22,7.22,0,0,0,1.64-4.7,6.92,6.92,0,0,0-4.85-7,14.13,14.13,0,0,0-4.22-.75h-2V95.37h1.28a9.78,9.78,0,0,0,5.93-1.87,6.89,6.89,0,0,0,2.2-5.57,11.87,11.87,0,0,0-.24-2.36,5.54,5.54,0,0,0-1-2.27,5.4,5.4,0,0,0-2.14-1.65,8,8,0,0,0-3.15-.56c-3.06,0-4.46,1.45-5.11,2.68a11.62,11.62,0,0,0-1.18,5.52v1H146.53v-.56a22.75,22.75,0,0,1,1.26-8,13.23,13.23,0,0,1,8.69-8.3,23,23,0,0,1,6.92-1,22.3,22.3,0,0,1,6.6.93,14.35,14.35,0,0,1,5.09,2.73,13,13,0,0,1,3.35,4.55,15.66,15.66,0,0,1,1.23,6.41,20,20,0,0,1-1.09,6.06,12.12,12.12,0,0,1-2.52,4.17l-1.18,1.24,1.43.94a10.37,10.37,0,0,1,3.78,4.48A16.43,16.43,0,0,1,181.37,110.59Z"/><path class="cls-5" d="M34.42,110.68h-13a19.39,19.39,0,0,1,2.5-2.94c1.34-1.32,2.8-2.66,4.34-4l1.21-1h13.8c-.68.64-1.38,1.25-2.09,1.84A60.27,60.27,0,0,0,35.5,110a9.21,9.21,0,0,1-.75.68A.92.92,0,0,1,34.42,110.68Z"/><rect class="cls-6" x="20.26" y="115.58" width="32.26" height="8.79"/><path class="cls-7" d="M96.21,102.73v4A29.36,29.36,0,0,1,95,115.93a14.17,14.17,0,0,1-3.35,5.63,11.72,11.72,0,0,1-5.18,2.94,26.71,26.71,0,0,1-7.18.91,26.33,26.33,0,0,1-7.13-.91A11.84,11.84,0,0,1,67,121.56a14.15,14.15,0,0,1-3.34-5.63,29,29,0,0,1-1.25-9.24v-4H72.64v3.49c0,3.09.38,5.33,1.17,6.86.65,1.23,2.12,2.71,5.45,2.71,2.68,0,4.52-.91,5.48-2.7.83-1.53,1.23-3.78,1.23-6.87v-3.49Z"/><path class="cls-8" d="M119.78,110.68H106.71a21.29,21.29,0,0,1,2.5-2.94c1.36-1.32,2.82-2.66,4.34-4l1.22-1h13.81c-.68.64-1.38,1.25-2.09,1.84a60.27,60.27,0,0,0-5.63,5.39c-.31.29-.56.53-.76.68A.82.82,0,0,1,119.78,110.68Z"/><rect class="cls-9" x="105.61" y="115.58" width="32.26" height="8.79"/><path class="cls-10" d="M181.37,110.59a14.74,14.74,0,0,1-1.32,6.44,13.38,13.38,0,0,1-3.55,4.56,15.32,15.32,0,0,1-5.33,2.75,27.32,27.32,0,0,1-13.91,0,14.69,14.69,0,0,1-5.63-2.8,13.5,13.5,0,0,1-3.76-5.07,19.51,19.51,0,0,1-1.41-7.91v-.56h10.25v1a7.61,7.61,0,0,0,2,5.53,7.32,7.32,0,0,0,5.41,2c2.56,0,4.44-.71,5.6-2.12a7.22,7.22,0,0,0,1.64-4.7,6.92,6.92,0,0,0-4.85-7h13a9.89,9.89,0,0,1,.63,1.21A16.43,16.43,0,0,1,181.37,110.59Z"/><path class="cls-11" d="M38.23,34.74a11.5,11.5,0,0,1,.83,4.52,14.84,14.84,0,0,1-1.25,6.41,12.41,12.41,0,0,1-3.38,4.41,14.22,14.22,0,0,1-5.16,2.62q-.8.22-1.65.39H17.69c-.56-.11-1.09-.24-1.61-.39a15.92,15.92,0,0,1-5.15-2.49A12.06,12.06,0,0,1,7.55,46.3a11,11,0,0,1-1.21-5.21V40.9h9.78v.37A4.05,4.05,0,0,0,18,44.75a8.3,8.3,0,0,0,4.56,1,6.12,6.12,0,0,0,4.65-1.59A5.92,5.92,0,0,0,28.68,40a4.63,4.63,0,0,0-1-3,8,8,0,0,0-2.16-1.82A13.87,13.87,0,0,0,22.85,34c-.85-.28-1.66-.56-2.41-.85l-1.1-.42H37A9.42,9.42,0,0,1,38.23,34.74Z"/><path class="cls-12" d="M47.06,32.73H77a13.55,13.55,0,0,1-2.53,3,17,17,0,0,1-6,3.27,26.76,26.76,0,0,1-8.19,1.17h-1a7.39,7.39,0,0,1-.91-.07L57,39.92V52.65H47.06Z"/><path class="cls-13" d="M85.87,32.73h9.61l-5.4,19.8c0,.09-.07.12-.3.12H79.63Z"/><path class="cls-14" d="M113.07,32.73l6.3,19.92H108.88c-.09,0-.14,0-.16,0L107,45.71H96.44l2.19-8.09c.07-.22.13-.27.18-.28h6l-1.18-4.61Z"/><path class="cls-15" d="M148.63,36.23h9.84v1.11a20.77,20.77,0,0,1-1.31,7.92,12,12,0,0,1-3.52,4.9,14,14,0,0,1-5.48,2.61c-.51.11-1,.23-1.56.31H135.22c-.56-.1-1.11-.21-1.64-.34a13.84,13.84,0,0,1-5.47-2.7,12,12,0,0,1-3.51-5,22.64,22.64,0,0,1-1.28-8.21V32.73h9.78v4.51c0,2.87.6,5,1.79,6.37s3.27,2.19,6,2.19,4.78-.74,6-2.21,1.72-3.49,1.72-6.35v-1Z"/><path class="cls-16" d="M193.66,44.53v8.12h-27.2V32.73h24.47v.46H176.67V44.52Z"/></svg>